<?xml version="1.0" encoding="utf-8"?>
<!DOCTYPE svg PUBLIC "-//W3C//DTD SVG 1.0//EN" "http://www.w3.org/TR/2001/REC-SVG-20010904/DTD/svg10.dtd">
<svg version="1.0" xmlns="http://www.w3.org/2000/svg" width="634px" height="634px" viewBox="0 0 634 634" preserveAspectRatio="xMidYMid meet">
 <g fill="#0762a8">
  <path d="M305.24 628.37 c-50.83 -2.23 -100.49 -17.09 -144.51 -43.09 -34.24 -20.31 -65.94 -48.42 -90.08 -79.99 -6.07 -7.93 -17.46 -25.20 -22.66 -34.42 -7.06 -12.38 -16.22 -32.07 -20.12 -43.15 -1.86 -5.32 -2.91 -6.69 -5.20 -6.69 -2.04 0 -2.04 -0.56 0 -2.17 l1.61 -1.24 -2.54 -8.36 c-8.98 -29.10 -12.94 -54.05 -13.50 -84.95 -0.50 -27.49 1.73 -49.96 7.55 -75.16 15.60 -67.18 53 -127.30 106.18 -170.82 40.80 -33.43 87.18 -55.23 138.07 -64.95 27.86 -5.32 64.45 -6.69 92.25 -3.47 63.59 7.37 119.49 31.76 168.16 73.37 36.34 31.02 65.94 72.13 84.64 117.64 9.66 23.47 17.27 52.13 20.49 77.39 1.86 14.30 2.35 23.65 2.35 40.24 0 33.68 -4.52 62.41 -15.23 96.46 -0.80 2.60 -0.80 3.03 -0.06 3.34 0.50 0.19 0.93 0.56 0.93 0.87 0 0.99 -4.64 0.62 -8.54 -0.74 -2.97 -0.99 -3.84 -1.55 -3.84 -2.48 0 -0.80 0.37 -1.18 1.05 -1.05 0.80 0.12 1.36 -0.87 2.48 -4.46 3.34 -10.71 8.85 -31.70 8.85 -33.81 0 -0.12 -0.43 -0.25 -0.93 -0.25 -0.50 0 -0.93 -0.25 -0.93 -0.56 0 -1.24 0.80 -2.54 1.55 -2.54 0.99 0 1.11 -0.68 2.72 -11.45 2.41 -16.16 2.85 -22.54 2.85 -44.27 0 -13.44 -0.31 -24.08 -0.80 -28.79 -6.32 -57.46 -25.88 -107.48 -59.62 -152.37 -37.15 -49.35 -90.89 -87.48 -149.15 -105.75 -33.50 -10.46 -61.73 -14.49 -96.90 -13.68 -23.53 0.50 -34.24 1.55 -53.56 5.39 -57.52 11.33 -110.27 39.75 -153.30 82.53 -18.39 18.33 -32.32 36.03 -45.51 57.89 -22.66 37.71 -36.72 79.68 -41.85 125.13 -0.80 7.18 -1.05 14.67 -1.05 30.28 0 21.61 0.62 30.21 3.34 46.75 0.68 4.09 1.24 7.62 1.24 7.93 0 0.25 0.56 0.43 1.24 0.43 0.93 0 1.24 0.43 1.24 1.55 0 0.93 -0.37 1.55 -0.93 1.55 -1.11 0 -0.99 0.62 2.23 13.62 3.96 15.91 7 25.08 8.17 24.89 0.68 -0.12 1.05 0.25 1.05 1.05 0 0.99 -0.87 1.49 -4.33 2.54 -4.95 1.49 -5.63 2.17 -1.49 1.55 3.71 -0.56 7.68 0.12 7.68 1.30 0 0.56 -0.25 0.74 -0.62 0.56 -1.18 -0.68 -0.62 1.24 2.23 8.36 4.15 10.59 14.86 31.82 21.42 42.72 25.88 42.84 62.04 78.69 105.75 104.82 9.78 5.82 30.90 16.28 40.80 20.18 29.90 11.76 59.25 18.64 90.64 21.17 10.71 0.80 47.67 0.43 54.92 -0.62 22.47 -3.34 35.23 -6.07 52.63 -11.33 26.50 -7.99 52.13 -19.94 77.08 -35.85 7.49 -4.83 21.79 -15.42 30.65 -22.78 9.16 -7.62 29.04 -27.43 36.59 -36.59 21.30 -25.69 38.70 -54.67 49.53 -82.59 2.54 -6.56 2.79 -7.80 1.80 -7.80 -0.31 0 -0.62 -0.25 -0.62 -0.62 0 -0.37 2.48 -0.62 6.19 -0.62 3.41 0 6.19 0.25 6.19 0.56 0 0.31 -0.31 0.68 -0.62 0.80 -0.37 0.12 -1.73 3.16 -3.03 6.69 -11.08 30.21 -29.66 61.67 -52.63 89.16 -10.09 12.14 -30.40 32.13 -42.47 42.04 -6.07 4.89 -17.03 13.06 -17.58 13.06 -0.31 0 -1.36 0.68 -2.35 1.49 -0.99 0.80 -3.41 2.48 -5.45 3.71 -2.04 1.24 -4.95 3.22 -6.50 4.40 -1.55 1.11 -2.97 2.11 -3.22 2.11 -0.19 0.06 -2.41 1.24 -4.95 2.72 -2.48 1.49 -6.19 3.47 -8.23 4.40 -1.98 0.93 -5.14 2.60 -6.87 3.78 -1.80 1.18 -3.71 2.17 -4.21 2.17 -0.56 0 -5.57 2.23 -11.08 4.95 -5.57 2.72 -10.46 4.95 -10.83 4.95 -0.43 0 -2.60 0.87 -4.89 1.86 -2.23 1.05 -4.33 1.86 -4.64 1.86 -0.37 0 -1.49 0.37 -2.54 0.87 -1.11 0.50 -3.65 1.36 -5.70 1.98 -2.04 0.62 -4.40 1.49 -5.26 1.92 -0.87 0.43 -2.11 0.80 -2.79 0.80 -0.68 0 -2.79 0.43 -4.64 0.99 -1.86 0.50 -5.32 1.49 -7.74 2.17 -6.07 1.73 -23.16 5.26 -31.08 6.44 -17.40 2.60 -33.43 3.22 -57.15 2.11z"/>
  <path d="M297.81 609.17 c-40.24 -3.22 -77.95 -13.93 -112.99 -32.07 -19.87 -10.28 -40.24 -24.15 -57.58 -39.13 -7.62 -6.56 -23.96 -23.03 -30.40 -30.59 -11.02 -12.94 -22.66 -29.53 -31.58 -45.01 -5.51 -9.47 -14.74 -28.36 -17.27 -35.17 -0.93 -2.54 -1.98 -4.89 -2.23 -5.20 -1.24 -1.36 -0.31 -1.61 5.63 -1.61 4.83 0 6.19 0.19 6.19 0.87 0 0.43 -0.56 0.99 -1.18 1.18 -1.18 0.31 -1.18 0.50 0.62 4.83 5.70 13.87 16.96 34.55 27.18 49.78 17.96 26.81 43.46 52.81 71.20 72.50 57.46 40.80 132.06 59.31 200.29 49.72 25.88 -3.65 46.93 -9.47 71.51 -19.87 55.29 -23.34 101.97 -63.77 132.81 -115.04 9.41 -15.66 21.98 -41.98 20.25 -42.60 -0.43 -0.12 -0.74 -0.50 -0.74 -0.80 0 -0.31 2.79 -0.56 6.19 -0.56 3.41 0 6.19 0.19 6.19 0.37 0 0.19 -0.50 0.80 -1.11 1.36 -0.62 0.62 -2.11 3.41 -3.22 6.32 -3.22 8.23 -11.70 25.51 -16.96 34.55 -28.67 49.72 -71.08 89.78 -122.59 115.84 -5.82 2.91 -11.83 5.88 -13.37 6.50 -1.55 0.68 -4.15 1.80 -5.88 2.54 -1.67 0.74 -4.77 1.98 -6.81 2.72 -2.04 0.80 -4.27 1.67 -4.95 1.98 -1.18 0.56 -16.35 5.39 -20.74 6.62 -1.18 0.37 -4.09 1.24 -6.50 1.98 -10.46 3.10 -30.21 6.44 -47.67 8.05 -7.55 0.68 -35.29 0.62 -44.27 -0.06z"/>
  <path d="M310.25 594.56 c-2.60 -1.30 -4.15 -3.78 -4.64 -7.49 -0.74 -5.82 2.41 -10.90 7.37 -11.58 5.88 -0.93 9.60 2.79 9.60 9.53 0 8.42 -5.63 12.82 -12.32 9.53z m5.82 -2.66 c2.97 -1.11 4.40 -7.43 2.48 -11.08 -1.49 -2.97 -4.77 -3.41 -7.49 -1.11 -1.36 1.18 -1.73 2.11 -1.98 4.95 -0.31 3.90 0.74 6.25 3.16 7.24 1.80 0.74 1.92 0.74 3.84 0z"/>
  <path d="M290.25 593.94 c-1.73 -0.19 -2.35 -0.56 -2.35 -1.30 0.06 -0.80 1.61 -17.03 1.80 -18.64 0.12 -0.50 7.86 0.68 9.72 1.49 4.46 1.86 6.25 10.03 3.16 14.61 -2.41 3.71 -5.26 4.58 -12.32 3.84z m8.73 -4.40 c1.61 -2.29 2.17 -4.58 1.67 -7.24 -0.62 -3.10 -2.54 -4.64 -5.76 -4.64 l-2.66 0 0 2.66 c0 1.42 -0.19 4.46 -0.43 6.81 l-0.37 4.15 3.16 0 c2.72 0 3.28 -0.25 4.40 -1.73z"/>
  <path d="M279.85 592.70 c-2.35 -0.43 -2.66 -1.11 -1.05 -2.23 1.30 -0.80 1.55 -1.67 1.92 -5.51 0.25 -2.48 0.62 -5.57 0.80 -6.81 0.31 -1.92 0.19 -2.35 -0.68 -2.35 -0.74 0 -0.99 -0.43 -0.87 -1.36 0.19 -1.30 0.43 -1.42 3.59 -1.24 1.86 0.12 3.59 0.56 3.84 0.93 0.68 1.11 -0.19 2.35 -1.36 1.98 -0.99 -0.31 -1.18 0.12 -1.55 3.22 -0.25 1.98 -0.62 5.14 -0.93 7 -0.56 3.71 -0.37 4.33 0.99 4.33 0.50 0 0.87 0.56 0.87 1.24 0 1.30 -1.61 1.49 -5.57 0.80z"/>
  <path d="M356.87 591.65 c-2.41 -1.05 -4.33 -3.71 -5.20 -7.31 -1.67 -6.50 2.85 -12.26 9.60 -12.26 2.97 0 4.02 0.56 4.02 2.17 0 1.36 -0.19 1.42 -3.34 1.11 -3.22 -0.31 -3.53 -0.25 -5.39 1.61 -1.80 1.86 -1.92 2.17 -1.67 5.45 0.25 2.97 0.62 3.78 2.35 5.32 2.11 1.86 2.17 1.86 7.93 0.68 1.73 -0.31 1.98 -0.25 1.98 0.93 0 2.72 -6.13 4.09 -10.28 2.29z"/>
  <path d="M368.39 589.55 c0 -2.72 1.92 -16.28 2.54 -17.89 0.37 -0.93 1.05 -1.42 1.98 -1.42 1.24 0 2.11 0.99 4.58 5.14 5.14 8.42 7 12.01 6.56 12.38 -1.05 1.11 -3.16 0.37 -3.90 -1.42 -0.68 -1.61 -1.05 -1.86 -3.22 -1.86 -3.53 0 -4.77 0.87 -5.20 3.71 -0.25 1.36 -0.62 2.48 -0.87 2.48 -0.31 0 -0.93 0.19 -1.49 0.37 -0.74 0.31 -0.99 -0.06 -0.99 -1.49z m8.67 -8.61 c0 -0.12 -0.43 -1.05 -0.93 -2.04 -1.36 -2.66 -3.22 -2.48 -3.53 0.31 -0.12 1.24 -0.19 2.29 -0.06 2.35 0.25 0.31 4.52 -0.31 4.52 -0.62z"/>
  <path d="M267.22 590.10 c-0.19 -0.25 0.31 -3.96 1.18 -8.17 0.80 -4.21 1.24 -7.86 1.05 -8.11 -0.25 -0.25 -1.42 -0.50 -2.60 -0.62 -1.18 -0.12 -2.17 -0.43 -2.17 -0.74 0 -1.30 4.33 -1.73 9.47 -0.99 4.83 0.68 5.08 0.80 5.08 2.29 0 1.55 -0.12 1.55 -2.79 1.24 -3.41 -0.50 -3.53 -0.31 -4.95 7.93 -0.56 3.10 -1.11 6.07 -1.30 6.69 -0.31 1.05 -2.41 1.49 -2.97 0.50z"/>
  <path d="M333.78 588.43 c-1.55 -1.98 -1.67 -3.78 -0.31 -5.70 0.74 -1.05 1.55 -1.36 3.59 -1.36 2.97 0 3.90 0.74 4.46 3.47 0.87 4.40 -4.95 7.12 -7.74 3.59z"/>
  <path d="M257.69 588.06 c-0.43 -0.43 -0.74 -1.11 -0.74 -1.61 0 -0.43 -0.62 -2.23 -1.30 -3.90 -0.87 -2.04 -1.67 -3.03 -2.48 -3.03 -1.11 0 -1.49 0.68 -2.17 4.52 -0.37 2.35 -0.68 2.54 -2.35 1.92 -1.36 -0.50 -1.24 -1.92 0.56 -9.53 0.87 -3.59 1.67 -7.18 1.92 -7.99 0.31 -1.36 0.56 -1.42 3.03 -1.11 6.38 0.93 9.47 3.59 8.73 7.55 -0.31 1.42 -1.11 2.66 -2.54 3.78 l-2.11 1.61 1.49 4.02 c0.87 2.23 1.55 4.15 1.55 4.27 0 0.56 -2.91 0.19 -3.59 -0.50z m1.11 -12.26 c0.68 -0.68 1.24 -1.49 1.24 -1.86 0 -1.24 -2.54 -3.10 -4.27 -3.10 -1.30 0 -1.86 0.37 -2.17 1.42 -0.80 2.97 -0.43 4.02 1.36 4.33 0.93 0.12 1.86 0.31 2.17 0.37 0.25 0 0.99 -0.50 1.67 -1.18z"/>
  <path d="M385.91 585.89 c-1.05 -2.72 -4.89 -17.58 -4.64 -17.83 0.19 -0.19 0.93 -0.31 1.61 -0.31 1.11 0 1.55 0.99 3.41 7.74 1.18 4.27 2.41 7.74 2.79 7.74 0.37 0 2.04 -0.43 3.71 -0.93 4.02 -1.24 4.21 -1.18 3.96 0.74 -0.19 1.55 -0.62 1.86 -3.90 2.79 -4.83 1.30 -6.44 1.36 -6.93 0.06z"/>
  <path d="M236.20 582.92 c-4.71 -1.67 -5.70 -5.08 -3.65 -12.14 1.92 -6.50 2.72 -7.99 4.33 -7.99 0.80 0 1.49 0.19 1.49 0.37 0 0.25 -0.80 3.03 -1.86 6.25 -2.17 6.69 -2.29 8.30 -0.74 9.60 3.65 3.22 5.94 1.30 8.48 -7.24 1.61 -5.57 1.80 -5.88 3.41 -5.88 l1.73 0 -1.55 5.45 c-2.35 8.30 -3.47 10.53 -6.01 11.58 -2.60 1.11 -2.54 1.11 -5.63 0z"/>
  <path d="M398.29 582.92 c-0.25 -0.68 0 -1.36 0.56 -1.80 0.87 -0.68 0.80 -1.42 -0.93 -7.37 -1.49 -5.02 -2.23 -6.62 -3.03 -6.62 -3.28 0 -0.68 -2.66 3.28 -3.41 2.72 -0.50 3.65 0.50 2.11 2.17 -0.99 1.05 -0.93 1.49 0.68 7.37 1.55 5.57 1.86 6.19 3.28 6.38 3.53 0.43 1.42 2.60 -3.84 3.90 -1.24 0.37 -1.73 0.19 -2.11 -0.62z"/>
  <path d="M408.32 580.01 c-0.12 -0.43 -1.55 -4.33 -3.10 -8.67 -1.55 -4.33 -2.79 -8.23 -2.79 -8.73 0 -1.05 7.99 -3.34 10.53 -3.03 4.40 0.56 8.54 6.50 7.86 11.33 -0.56 4.40 -2.60 6.44 -8.54 8.61 -3.96 1.49 -3.65 1.42 -3.96 0.50z m7.06 -5.39 c1.55 -1.49 1.92 -2.29 1.92 -4.52 0 -4.89 -3.22 -8.42 -7 -7.55 -4.21 0.87 -4.21 0.80 -1.80 7.68 2.41 7.06 3.41 7.68 6.87 4.40z"/>
  <path d="M220.10 577.29 c-2.66 -1.36 -4.02 -2.72 -4.02 -4.09 0 -1.67 2.11 -1.42 4.02 0.50 1.24 1.24 2.04 1.55 3.90 1.36 1.86 -0.12 2.35 -0.43 2.48 -1.67 0.19 -1.11 -0.56 -2.23 -3.22 -4.71 -4.02 -3.71 -4.58 -6.07 -1.92 -8.67 2.23 -2.29 7 -2.17 9.60 0.19 1.36 1.18 1.80 1.98 1.55 2.79 -0.56 1.42 -1.73 1.36 -3.10 -0.19 -0.74 -0.80 -1.92 -1.24 -3.53 -1.24 -3.53 0 -3.28 1.98 0.87 5.63 2.97 2.66 3.28 3.16 3.28 5.51 0 2.11 -0.37 2.91 -1.73 4.09 -2.04 1.73 -5.39 1.98 -8.17 0.50z"/>
  <path d="M423.24 571.96 c-0.19 -1.49 -0.50 -6.07 -0.68 -10.15 l-0.43 -7.49 1.80 -0.43 c1.55 -0.43 2.17 0 7.12 5.32 3.03 3.16 6.01 6.50 6.75 7.43 l1.24 1.73 -1.61 0.74 c-1.55 0.68 -1.80 0.62 -2.91 -0.93 -1.42 -1.98 -2.41 -2.04 -5.94 -0.43 -2.54 1.18 -2.60 1.24 -2.48 3.84 0.19 2.35 0 2.66 -1.18 2.85 -1.18 0.19 -1.36 -0.19 -1.67 -2.48z m5.14 -7.37 c2.29 -0.80 2.29 -0.99 0.56 -2.85 -2.04 -2.17 -2.97 -1.80 -2.97 1.05 0 1.36 0.12 2.48 0.25 2.48 0.06 0 1.05 -0.31 2.17 -0.68z"/>
  <path d="M437.98 562.37 c-1.61 -3.03 -3.71 -6.87 -4.71 -8.67 l-1.73 -3.16 1.67 -1.18 c4.64 -3.22 10.34 -3.90 13.56 -1.61 2.60 1.86 4.27 5.39 4.27 9.16 0 4.09 -1.61 6.32 -6.44 8.92 l-3.71 1.92 -2.91 -5.39z m6.87 -0.19 c2.79 -1.73 3.59 -3.78 2.72 -6.93 -0.74 -2.97 -3.59 -6.07 -5.51 -6.07 -1.86 0 -5.57 1.67 -5.57 2.54 0 0.80 5.70 11.70 6.13 11.70 0.12 0 1.11 -0.56 2.23 -1.24z"/>
  <path d="M202.77 565.15 c-3.03 -1.61 -3.59 -4.27 -1.49 -6.93 1.05 -1.36 1.73 -1.61 3.53 -1.49 4.21 0.37 5.70 4.83 2.60 7.93 -1.36 1.36 -2.79 1.55 -4.64 0.50z"/>
  <path d="M184.69 561.13 c-0.43 -0.12 -0.80 -1.36 -0.80 -2.60 0 -5.26 -0.80 -11.83 -1.49 -11.83 -0.37 0 -1.86 2.11 -3.34 4.64 -2.41 4.09 -2.85 4.58 -3.90 4.02 -0.62 -0.37 -1.18 -0.93 -1.18 -1.30 0 -0.93 7.86 -13.19 9.23 -14.43 0.68 -0.62 1.67 -0.99 2.23 -0.80 0.74 0.31 0.93 1.80 0.99 8.30 0 5.32 0.19 7.62 0.62 7 0.31 -0.50 1.67 -2.72 2.97 -4.95 1.92 -3.22 2.72 -4.09 4.09 -4.21 2.17 -0.25 2.11 -0.19 -3.28 9.35 -4.02 7 -4.46 7.49 -6.13 6.81z"/>
  <path d="M166.05 549.98 c-0.74 -0.12 -2.29 -1.18 -3.47 -2.29 -3.90 -3.65 -3.59 -9.47 0.80 -14.12 2.11 -2.29 2.60 -2.48 6.32 -2.79 3.65 -0.31 4.15 -0.19 5.94 1.30 5.08 4.27 4.02 11.95 -2.35 16.53 -1.61 1.18 -5.02 1.86 -7.24 1.36z m6.62 -5.45 c0.99 -1.18 2.23 -3.28 2.60 -4.64 0.68 -2.23 0.62 -2.72 -0.50 -4.21 -1.86 -2.48 -5.51 -2.60 -8.23 -0.31 -5.45 4.58 -4.33 11.33 1.92 11.33 1.86 0 2.66 -0.43 4.21 -2.17z"/>
  <path d="M460.15 548.81 c-1.80 -1.24 -1.86 -4.71 -0.12 -6.44 2.79 -2.79 7.62 -0.80 7.62 3.10 0 3.78 -4.21 5.63 -7.49 3.34z"/>
  <path d="M475.25 535.99 l-5.88 -7.55 1.98 -1.73 c2.48 -2.17 6.19 -4.15 7.80 -4.15 0.68 0 2.23 0.87 3.47 1.92 1.80 1.61 2.17 2.35 2.17 4.33 0 1.98 -0.50 2.97 -2.41 5.08 l-2.41 2.60 1.80 2.41 c2.11 2.91 2.11 2.97 0.62 3.90 -1.05 0.68 -1.80 0 -7.12 -6.81z m5.82 -5.57 c0.93 -1.55 0.19 -3.47 -1.49 -3.90 -0.80 -0.19 -2.48 0.12 -3.71 0.62 l-2.35 0.99 2.04 2.72 c1.92 2.72 1.98 2.79 3.34 1.73 0.80 -0.56 1.73 -1.55 2.17 -2.17z"/>
  <path d="M152.06 540.08 c-3.10 -2.41 -3.41 -3.59 -0.87 -3.59 2.17 0 9.91 -9.78 9.41 -11.83 -0.56 -2.17 0.87 -2.35 3.53 -0.50 1.36 0.93 2.60 1.92 2.79 2.23 0.56 0.93 -0.93 2.23 -2.17 1.92 -0.87 -0.19 -2.17 0.99 -5.26 4.83 -4.09 5.08 -4.77 6.44 -3.34 6.87 0.80 0.31 0.25 2.35 -0.62 2.35 -0.31 0 -1.86 -0.99 -3.47 -2.29z"/>
  <path d="M144.88 534.44 c-5.82 -3.16 -6.56 -10.09 -1.61 -15.48 2.04 -2.29 4.33 -3.22 7.86 -3.22 2.91 0 3.41 0.25 5.63 2.48 1.86 1.86 2.41 2.79 2.23 4.15 -0.25 2.35 -1.36 2.17 -3.10 -0.43 -1.30 -1.92 -1.80 -2.17 -4.64 -2.35 -2.60 -0.12 -3.41 0.06 -5.02 1.42 -3.22 2.72 -3.90 7.93 -1.30 10.03 0.50 0.31 1.73 0.93 2.72 1.24 1.24 0.37 1.86 0.99 1.86 1.80 0 1.61 -1.98 1.80 -4.64 0.37z"/>
  <path d="M488.19 528 c-2.66 -3.16 -5.45 -6.38 -6.07 -7.12 -1.24 -1.36 -1.24 -1.42 -0.12 -2.66 1.98 -2.23 6.62 -4.95 8.36 -4.95 0.93 0 2.41 0.56 3.28 1.24 1.30 1.05 1.67 1.92 1.80 4.46 l0.19 3.22 3.59 0.80 c5.39 1.18 5.94 1.67 3.90 2.97 -1.42 0.93 -2.04 0.99 -4.02 0.37 -2.79 -0.80 -6.69 -0.93 -7.12 -0.12 -0.19 0.25 0.68 1.67 1.86 3.10 1.86 2.11 2.11 2.72 1.49 3.47 -0.43 0.50 -1.11 0.93 -1.49 0.93 -0.43 0 -2.97 -2.60 -5.63 -5.70z m2.60 -5.57 c3.16 -2.97 0.87 -7.12 -2.85 -5.14 -0.99 0.50 -2.04 1.18 -2.23 1.55 -0.31 0.56 2.66 4.95 3.34 4.95 0.19 0 0.93 -0.62 1.73 -1.36z"/>
  <path d="M175.46 529.92 c-0.62 -1.11 0.68 -1.92 3.71 -2.23 3.34 -0.37 3.78 0.56 0.99 1.98 -2.11 1.11 -4.09 1.18 -4.71 0.25z"/>
  <path d="M133.24 524.29 c-0.99 -0.99 -0.93 -2.54 0.50 -7.93 1.49 -5.70 1.49 -5.57 0.12 -5.57 -0.62 0 -2.48 1.42 -4.15 3.10 -3.22 3.28 -4.27 3.71 -5.14 2.11 -0.80 -1.42 11.76 -13.99 13.74 -13.74 0.93 0.12 1.30 0.62 1.24 1.73 -0.06 1.61 -2.29 11.83 -3.10 13.93 -0.25 0.68 1.67 -0.80 4.15 -3.22 4.46 -4.33 6.19 -5.32 7.12 -3.84 0.37 0.62 -12.44 14.18 -13.37 14.18 -0.19 0 -0.68 -0.31 -1.11 -0.74z"/>
  <path d="M498.90 516.12 l-6.62 -6.93 3.84 -3.84 c3.90 -3.84 5.70 -4.64 6.44 -2.85 0.25 0.62 -0.62 1.98 -2.54 3.90 l-2.85 2.91 1.55 1.49 1.55 1.49 2.35 -2.29 c4.27 -4.15 6.69 -2.48 2.54 1.80 l-2.66 2.72 1.86 1.98 c0.99 1.11 1.86 2.11 1.92 2.23 0 0.12 1.24 -1.05 2.66 -2.60 2.60 -2.85 4.71 -3.59 5.32 -1.98 0.31 0.87 -7 9.10 -8.11 8.98 -0.31 -0.06 -3.59 -3.22 -7.24 -7z"/>
  <path d="M117.70 509 c-2.11 -2.35 -3.78 -4.52 -3.78 -4.83 0 -1.11 13.25 -11.95 14.55 -11.89 0.68 0 2.66 1.61 4.58 3.71 3.10 3.47 3.28 3.78 2.35 4.77 -0.99 0.93 -1.24 0.80 -3.71 -1.61 -2.79 -2.72 -3.78 -3.10 -5.51 -1.73 -1.55 1.11 -1.42 1.42 1.42 4.52 2.35 2.54 2.48 2.85 1.55 3.78 -0.93 0.93 -1.24 0.80 -3.90 -1.86 l-2.97 -2.91 -2.17 1.73 c-2.35 1.98 -2.41 1.92 1.80 6.38 1.80 1.92 1.98 2.48 1.30 3.28 -0.43 0.50 -0.99 0.93 -1.24 0.93 -0.25 0 -2.17 -1.92 -4.27 -4.27z"/>
  <path d="M513.21 509.61 c-2.85 -0.93 -4.27 -1.98 -6.13 -4.52 -3.78 -5.14 -1.49 -12.82 4.15 -13.87 2.23 -0.43 3.10 -1.18 2.04 -1.80 -0.99 -0.62 -0.74 -1.36 1.30 -3.71 2.35 -2.66 3.84 -2.85 3.53 -0.50 -0.19 1.42 0.50 2.17 4.95 5.57 3.65 2.79 5.63 3.90 6.93 3.90 1.05 0 1.86 0.19 1.86 0.37 0 0.87 -3.90 5.20 -4.64 5.20 -0.50 0 -0.93 -0.62 -1.05 -1.36 -0.19 -1.49 -9.23 -9.16 -10.77 -9.16 -0.56 0 -0.87 0.68 -0.87 1.86 0 1.42 -0.31 1.86 -1.18 1.86 -0.62 0 -1.86 0.56 -2.72 1.24 -4.71 3.71 -0.74 11.76 5.82 11.76 2.48 0 4.46 -1.73 5.14 -4.52 0.31 -1.36 0.74 -1.73 1.80 -1.55 1.11 0.12 1.36 0.56 1.30 2.11 -0.12 2.66 -1.86 5.02 -4.64 6.50 -2.48 1.24 -4.15 1.36 -6.81 0.62z"/>
  <path d="M107.11 496.86 c-1.05 -1.24 -0.43 -1.86 6.62 -7.18 3.16 -2.41 5.76 -4.52 5.76 -4.71 0 -0.19 -0.87 -1.42 -1.92 -2.72 -1.92 -2.41 -1.92 -3.65 -0.06 -3.65 0.93 0.06 9.29 9.97 9.60 11.39 0.06 0.31 -0.37 0.87 -0.99 1.24 -0.87 0.56 -1.30 0.37 -2.48 -1.11 -1.86 -2.29 -2.66 -2.04 -9.16 3.34 -2.85 2.41 -5.51 4.33 -5.88 4.33 -0.37 0 -1.05 -0.43 -1.49 -0.93z"/>
  <path d="M102.90 490.85 c-1.05 -1.05 -0.93 -1.92 0.50 -3.78 l1.24 -1.61 -1.55 -2.29 c-0.87 -1.24 -1.55 -2.54 -1.55 -2.85 0 -0.37 -1.36 -0.43 -3.34 -0.19 -2.79 0.37 -3.34 0.25 -3.71 -0.62 -0.19 -0.62 -0.31 -1.24 -0.12 -1.36 0.43 -0.43 13.93 -3.90 15.23 -3.90 0.68 0 1.80 -0.37 2.48 -0.74 1.36 -0.87 3.28 -0.12 3.59 1.42 0.06 0.50 -2.23 4.09 -5.20 7.99 -2.91 3.90 -5.45 7.49 -5.63 7.93 -0.37 0.93 -0.99 0.93 -1.92 0z m4.71 -12.75 c-3.28 -0.25 -3.96 0.50 -2.29 2.60 l1.30 1.67 1.73 -2.04 1.73 -2.04 -2.48 -0.19z"/>
  <path d="M526.08 488.50 c-4.15 -2.60 -5.51 -5.08 -5.20 -9.16 0.37 -4.77 2.60 -6.93 7.74 -7.37 3.16 -0.31 4.09 -0.12 5.94 1.05 4.71 2.85 6.81 7.62 5.32 12.01 -1.80 5.45 -8.11 7.06 -13.81 3.47z m9.47 -2.48 c2.85 -2.85 1.86 -6.81 -2.48 -9.66 -4.52 -3.03 -9.84 -0.68 -9.04 4.02 0.80 5.14 8.36 8.79 11.52 5.63z"/>
  <path d="M185.12 434.33 l0 -8.98 2.04 0 c1.80 0 2.35 0.37 4.09 3.10 1.11 1.73 2.29 2.97 2.60 2.79 0.31 -0.19 1.42 -1.61 2.41 -3.16 1.49 -2.11 2.29 -2.72 3.65 -2.72 l1.73 0 0.37 8.42 c0.25 4.64 0.25 8.67 0.06 8.98 -0.19 0.31 -1.11 0.56 -2.04 0.56 -1.98 0 -2.54 -1.11 -2.54 -5.08 0 -2.66 -0.87 -2.97 -2.48 -0.93 l-1.11 1.36 -1.49 -1.36 c-2.41 -2.29 -2.97 -1.86 -2.97 2.29 l0 3.71 -2.17 0 -2.17 0 0 -8.98z"/>
  <path d="M203.08 442.75 c0 -0.68 3.90 -11.83 5.26 -15.05 0.80 -2.11 1.18 -2.35 3.10 -2.35 1.18 0 2.17 0.31 2.17 0.62 0 0.37 1.42 4.27 3.10 8.67 1.73 4.40 3.10 8.17 3.10 8.36 0 0.25 -1.05 0.31 -2.29 0.19 -1.86 -0.12 -2.35 -0.50 -2.66 -1.73 -0.31 -1.36 -0.74 -1.55 -3.53 -1.73 -3.10 -0.19 -3.16 -0.12 -3.59 1.73 -0.37 1.61 -0.68 1.86 -2.54 1.86 -1.18 0 -2.11 -0.25 -2.11 -0.56z"/>
  <path d="M221.53 438.85 c-0.25 -3.90 -0.62 -5.08 -2.85 -8.67 -1.36 -2.23 -2.35 -4.27 -2.17 -4.46 0.25 -0.19 1.30 -0.37 2.41 -0.37 1.80 0 2.23 0.31 3.41 2.60 l1.30 2.60 1.55 -2.60 c1.42 -2.35 1.80 -2.60 3.96 -2.60 1.30 0 2.41 0.12 2.41 0.25 0 0.12 -1.18 2.17 -2.60 4.46 -2.29 3.78 -2.66 4.77 -2.85 8.79 l-0.25 4.46 -2.04 0 -1.98 0 -0.31 -4.46z"/>
  <path d="M234.96 442.69 c-0.68 -0.25 -2.04 -1.36 -3.03 -2.41 -1.42 -1.49 -1.86 -2.60 -2.11 -5.20 -0.50 -6.19 2.85 -9.72 9.29 -9.72 3.10 0 3.84 0.25 5.76 1.92 4.27 3.78 4.40 9.78 0.25 13.68 -2.23 2.11 -2.79 2.35 -5.70 2.29 -1.80 0 -3.78 -0.25 -4.46 -0.56z m6.93 -5.08 c1.67 -1.55 1.86 -4.52 0.43 -6.56 -1.42 -2.11 -5.32 -1.92 -7.06 0.31 -3.53 4.46 2.48 10.15 6.62 6.25z"/>
  <path d="M249.51 434.33 l0 -8.98 4.83 0 c4.95 0.06 6.19 0.50 7.43 2.91 1.18 2.11 0.87 4.27 -0.74 6.19 l-1.55 1.80 1.86 3.10 c0.99 1.67 1.80 3.22 1.80 3.53 0 0.25 -1.05 0.43 -2.29 0.43 -2.11 0 -2.48 -0.25 -3.59 -2.29 -0.68 -1.30 -1.73 -2.41 -2.29 -2.54 -0.93 -0.19 -1.11 0.25 -1.11 2.29 0 2.48 -0.06 2.54 -2.17 2.54 l-2.17 0 0 -8.98z m7.74 -3.41 c0 -1.24 -0.37 -1.61 -1.67 -1.73 -1.55 -0.19 -1.73 0 -1.73 1.73 0 1.73 0.19 1.92 1.73 1.73 1.30 -0.12 1.67 -0.50 1.67 -1.73z"/>
  <path d="M264.13 439.53 c-0.19 -2.11 -0.37 -6.19 -0.37 -8.98 l0 -5.20 5.88 0 5.88 0 0 1.80 c0 1.80 -0.12 1.86 -3.22 2.04 -2.85 0.19 -3.28 0.37 -3.47 1.61 -0.19 1.24 0.06 1.36 2.60 1.36 2.72 0 2.85 0.06 2.85 1.80 0 1.86 -1.11 2.54 -4.09 2.54 -0.80 0 -1.49 0.50 -1.67 1.24 -0.31 1.11 0 1.24 3.34 1.24 l3.65 0 0 2.17 0 2.17 -5.51 0 -5.45 0 -0.43 -3.78z"/>
  <path d="M280.16 442.07 c-5.45 -3.59 -5.26 -12.88 0.31 -15.79 0.99 -0.50 3.34 -0.93 5.20 -0.93 2.97 0 3.71 0.25 5.63 1.92 4.15 3.71 4.33 9.66 0.31 13.74 -2.17 2.11 -2.60 2.29 -5.94 2.29 -2.60 0 -4.21 -0.37 -5.51 -1.24z m8.36 -4.33 c1.80 -1.80 1.86 -5.08 0.12 -7 -1.42 -1.55 -5.57 -1.05 -7.06 0.80 -3.47 4.27 3.03 10.09 6.93 6.19z"/>
  <path d="M303.32 442.50 c-2.66 -2.04 -3.03 -5.14 -0.93 -7.68 1.05 -1.24 1.36 -2.11 0.93 -2.72 -0.93 -1.42 -0.62 -4.02 0.56 -5.08 1.80 -1.61 6.62 -1.42 7.80 0.31 1.24 1.73 1.24 3.84 0.06 4.83 -0.50 0.43 -0.93 1.30 -0.93 1.92 0 0.93 0.31 1.05 1.86 0.80 0.99 -0.25 2.23 -0.25 2.79 0 0.87 0.31 0.87 0.56 0 2.29 -0.99 1.86 -0.99 1.98 0.62 3.65 0.93 0.93 1.42 1.86 1.11 2.04 -1.11 0.62 -12.94 0.31 -13.87 -0.37z m5.20 -3.34 c0.56 -0.56 -1.36 -2.66 -2.48 -2.66 -0.99 0 -1.05 1.36 -0.06 2.35 0.80 0.80 1.92 0.99 2.54 0.31z"/>
  <path d="M324.43 434.33 l0 -8.98 1.80 0 c1.42 0 2.17 0.56 3.84 3.10 1.18 1.67 2.29 3.10 2.48 3.10 0.25 0 1.36 -1.36 2.48 -3.10 1.80 -2.60 2.41 -3.10 4.15 -3.10 l1.98 0 0 8.98 0 8.98 -2.17 0 -2.17 0 0 -4.02 c0 -4.40 -0.93 -5.32 -2.48 -2.48 -0.93 1.80 -1.42 1.92 -2.48 0.62 -0.43 -0.50 -1.30 -0.93 -1.92 -0.93 -0.99 0 -1.18 0.50 -1.18 3.41 l0 3.41 -2.17 0 -2.17 0 0 -8.98z"/>
  <path d="M343 434.33 l0 -8.98 5.57 0 5.57 0 0 1.86 c0 1.05 -0.31 1.86 -0.74 1.86 -2.04 0 -5.45 1.36 -5.45 2.17 0 0.68 0.74 0.93 2.79 0.93 2.79 0 2.79 0 2.79 2.11 0 2.11 -0.06 2.17 -2.91 2.35 -2.23 0.12 -3.03 0.43 -3.16 1.30 -0.19 0.87 0.31 1.05 3.22 1.05 3.71 0 4.33 0.43 3.71 2.79 -0.37 1.49 -0.50 1.55 -5.88 1.55 l-5.51 0 0 -8.98z"/>
  <path d="M356.01 434.33 l0 -8.98 1.73 0.06 c1.30 0 2.48 0.99 5.57 4.71 l3.84 4.64 0 -4.71 0 -4.71 2.17 0 2.17 0 0 8.98 0 8.98 -1.73 0 c-1.36 0 -2.23 -0.68 -4.15 -3.41 -1.80 -2.48 -2.85 -3.41 -3.71 -3.28 -1.05 0.19 -1.30 0.74 -1.42 3.47 l-0.19 3.22 -2.17 0 -2.11 0 0 -8.98z"/>
  <path d="M375.69 441.51 l-2.04 -1.80 -0.19 -7.18 -0.25 -7.18 2.23 0 2.23 0 0 5.63 c0 6.44 0.56 7.99 2.97 7.99 2.85 0 3.22 -0.93 3.22 -7.55 l0 -6.07 2.11 0 c2.54 0 2.85 0.68 2.85 5.76 -0.06 9.29 -1.98 12.20 -7.86 12.20 -2.72 0 -3.59 -0.31 -5.26 -1.80z"/>
  <path d="M390.68 434.33 l0 -8.98 4.83 0 c3.71 0 5.20 0.31 6.81 1.24 3.71 2.29 5.02 8.30 2.60 12.26 -1.98 3.28 -4.58 4.46 -9.72 4.46 l-4.52 0 0 -8.98z m8.36 4.02 c2.11 -0.80 3.03 -3.28 2.17 -5.94 -0.74 -2.17 -1.61 -2.72 -4.40 -2.72 l-1.80 0 0 4.64 c0 5.08 0.37 5.45 4.02 4.02z"/>
  <path d="M407.64 442.50 c-0.12 -0.43 -0.19 -4.40 -0.12 -8.85 l0.19 -7.99 5.63 -0.19 5.70 -0.19 -0.43 2.04 c-0.37 1.86 -0.68 2.04 -2.85 2.23 -4.71 0.37 -5.20 2.60 -0.56 2.60 2.72 0 2.72 0 2.72 2.17 0 2.17 0 2.17 -2.79 2.17 -2.35 0 -2.79 0.19 -2.79 1.24 0 1.11 0.43 1.24 3.41 1.24 l3.41 0 0 2.17 0 2.17 -5.57 0 c-4.02 0 -5.70 -0.25 -5.94 -0.80z"/>
  <path d="M424.05 441.88 c-5.45 -3.65 -5.63 -11.95 -0.25 -15.29 3.10 -1.92 8.30 -1.73 10.83 0.37 3.71 3.16 4.71 7.31 2.60 11.39 -1.55 3.10 -4.64 4.95 -8.17 4.95 -1.98 0 -3.59 -0.43 -5.02 -1.42z m7.99 -4.15 c1.67 -1.55 1.86 -5.26 0.31 -6.93 -1.30 -1.49 -5.20 -1.49 -6.50 0 -1.61 1.73 -1.86 3.65 -0.87 5.63 1.49 2.85 4.77 3.41 7.06 1.30z"/>
  <path d="M40.86 413.59 c0 -0.37 0.37 -0.80 0.87 -0.99 0.68 -0.25 0.50 -1.42 -0.99 -6.01 -2.54 -8.05 -6.69 -23.40 -6.69 -24.83 0 -0.68 -0.43 -1.73 -1.05 -2.35 -0.93 -1.05 -0.87 -1.11 1.80 -1.11 4.09 0 10.40 2.29 10.40 3.78 0 0.62 -0.43 1.18 -0.93 1.18 -1.42 0 -1.18 1.61 1.86 11.89 4.09 14.05 4.09 14.12 5.39 14.12 0.68 0 1.11 0.43 1.11 1.18 0 0.87 -0.99 1.42 -4.02 2.48 -4.33 1.42 -7.74 1.67 -7.74 0.68z"/>
  <path d="M586.82 412.47 c-2.11 -0.68 -2.97 -1.30 -2.97 -2.11 0 -0.62 0.43 -1.11 0.93 -1.11 0.56 0 1.49 -1.98 2.72 -6.01 1.73 -5.70 5.63 -19.38 5.63 -19.81 0 -0.12 -0.43 -0.19 -0.93 -0.19 -1.61 0 -1.05 -2.23 0.80 -3.10 0.93 -0.43 3.53 -0.93 5.88 -1.11 3.41 -0.25 4.15 -0.12 3.90 0.56 -0.19 0.50 -1.05 3.96 -1.92 7.68 -0.87 3.78 -2.85 10.83 -4.40 15.79 -1.80 5.70 -2.60 9.04 -2.17 9.16 0.37 0.12 0.68 0.50 0.68 0.80 0 0.87 -4.95 0.56 -8.17 -0.56z"/>
  <path d="M30.34 374.27 c0 -0.50 0.43 -0.93 0.93 -0.93 0.93 0 0.93 0.06 -0.37 -7.12 -2.79 -15.73 -3.90 -32.75 -3.47 -53.99 0.31 -18.45 1.18 -27.55 3.90 -43.84 8.73 -51.76 32.75 -101.91 68.11 -142.09 44.52 -50.65 104.88 -84.45 169.89 -95.29 16.41 -2.72 22.17 -3.16 43.34 -3.59 20.56 -0.37 29.10 0.06 45.82 2.35 48.23 6.69 95.16 26.07 134.04 55.35 10.83 8.17 18.51 14.80 28.73 24.77 59.56 58.20 90.77 136.89 87.30 220.23 -0.62 15.60 -2.91 36.41 -4.64 42.16 -0.25 0.68 0 1.05 0.62 1.05 0.56 0 0.99 0.43 0.99 0.93 0 0.74 -1.11 0.93 -6.19 0.93 -5.08 0 -6.19 -0.19 -6.19 -0.93 0 -0.50 0.43 -0.93 0.93 -0.93 0.50 0 1.05 -0.62 1.24 -1.36 1.11 -5.02 1.61 -8.05 2.72 -16.28 3.71 -27.86 3.16 -57.46 -1.49 -85.44 -3.22 -19.26 -11.39 -47.98 -13.62 -47.98 -0.62 0 -23.77 34.67 -42.53 63.83 l-4.21 6.56 0 26.38 0 26.44 -18.70 -0.12 -18.76 -0.19 -0.19 -26.68 -0.12 -26.68 -23.77 -35.79 c-13.13 -19.75 -23.65 -36.10 -23.53 -36.34 0.19 -0.25 9.60 -0.50 20.99 -0.50 l20.62 0 2.35 4.21 c4.02 7.18 21.42 36.28 22.17 37.15 0.56 0.56 1.11 0.06 2.60 -2.48 1.05 -1.80 6.56 -11.27 12.32 -21.05 l10.40 -17.83 20.06 0 20.06 0 -0.43 -1.36 c-1.30 -4.21 -7.86 -18.88 -12.69 -28.36 -20.43 -40.37 -51.08 -75.78 -88.91 -102.65 -32.63 -23.16 -71.51 -39.56 -111.20 -46.87 -19.56 -3.59 -21.67 -3.71 -51.20 -3.71 -29.53 0 -32.81 0.25 -50.34 3.41 -13.93 2.60 -34.55 7.74 -36.65 9.29 -0.31 0.25 -2.29 0.93 -4.33 1.55 -2.04 0.62 -3.96 1.30 -4.27 1.61 -0.37 0.31 -1.05 0.56 -1.55 0.56 -0.93 0 -14.86 5.57 -19.26 7.68 -23.34 11.21 -35.41 18.39 -52.32 31.02 -12.88 9.66 -21.24 17.03 -33.12 29.16 -45.51 46.62 -72.44 104.14 -79.62 170.20 -1.49 13.68 -1.49 42.78 -0.06 55.85 0.93 8.42 2.91 21.55 3.84 25.45 0.19 0.74 0.74 1.36 1.24 1.36 0.50 0 0.93 0.43 0.93 0.93 0 0.74 -1.11 0.93 -6.19 0.93 -5.08 0 -6.19 -0.19 -6.19 -0.93z"/>
  <path d="M56.96 282.64 l0 -62.84 29.59 0 c16.65 0 31.82 0.31 34.80 0.62 13.25 1.67 23.47 5.88 31.08 12.94 7.93 7.31 12.57 16.16 15.85 30.09 1.36 5.94 1.61 8.23 1.61 18.26 0.06 12.69 -0.56 17.40 -3.47 26.62 -2.97 9.29 -6.07 14.74 -11.95 20.99 -2.66 2.85 -11.27 9.35 -12.38 9.35 -0.19 0 -1.67 0.62 -3.28 1.30 -4.09 1.92 -15.54 4.09 -25.08 4.89 -4.46 0.31 -19.07 0.62 -32.44 0.62 l-24.33 0 0 -62.84z m61.17 31.64 c7.49 -3.47 12.14 -10.71 13.81 -21.61 1.11 -7.12 0.43 -22.10 -1.30 -27.37 -3.71 -11.58 -9.91 -16.53 -22.47 -17.77 -3.47 -0.37 -8.17 -0.50 -10.46 -0.25 l-4.21 0.50 0 34.36 0 34.36 10.40 -0.25 c9.91 -0.19 10.53 -0.25 14.24 -1.98z"/>
  <path d="M169.64 345.17 c0 -0.12 0.80 -2.41 1.80 -5.08 0.99 -2.66 4.71 -12.63 8.30 -22.17 9.84 -26.25 25.26 -67.61 31.14 -83.65 l5.32 -14.30 20.43 -0.43 c11.27 -0.25 20.68 -0.25 20.99 0.06 0.25 0.25 2.85 6.93 5.70 14.74 5.57 15.29 29.97 80.55 37.02 99.19 2.35 6.25 4.27 11.45 4.27 11.64 0 0.19 -8.92 0.31 -19.75 0.31 l-19.75 0 -2.29 -7.24 c-1.24 -4.02 -2.72 -8.85 -3.34 -10.71 l-1.11 -3.41 -18.70 -0.19 c-10.28 -0.06 -20 0.06 -21.61 0.37 l-2.91 0.43 -1.36 4.02 c-0.74 2.23 -2.23 6.87 -3.28 10.40 l-1.98 6.32 -19.44 0 c-10.71 0 -19.44 -0.12 -19.44 -0.31z m80.74 -49.35 c-0.93 -3.03 -7.74 -25.38 -10.28 -33.74 -1.42 -4.89 -2.91 -8.85 -3.34 -8.85 -0.37 0 -0.87 0.87 -1.11 1.98 -0.19 1.11 -3.03 10.59 -6.25 21.17 -3.22 10.53 -5.88 19.50 -5.88 20 0 0.62 2.66 0.80 13.68 0.80 l13.62 0 -0.43 -1.36z"/>
  <path d="M317.62 282.64 l0 -62.84 17.83 0 17.83 0 5.57 8.23 c18.51 27.49 41.17 60.49 41.54 60.49 0.19 0 0.25 -15.54 0.12 -34.49 l-0.25 -34.55 17.96 0 17.96 0 0.19 63.03 0.12 62.97 -17.83 0 -17.83 0 -9.84 -14.67 c-27.55 -41.42 -35.04 -52.19 -36.22 -52.19 -1.24 0 -1.24 0.68 -1.24 33.43 l0 33.43 -17.96 0 -17.96 0 0 -62.84z"/>
  <path d="M212.37 195.03 c0 -0.31 1.92 -7.06 4.27 -14.98 2.35 -7.93 4.89 -16.47 5.63 -18.88 l1.30 -4.52 89.09 0 89.09 0 1.30 4.52 c1.55 5.26 8.42 28.05 9.66 31.89 l0.80 2.60 -100.55 0 c-63.34 0 -100.61 -0.25 -100.61 -0.62z m22.91 -7.62 c1.80 -0.93 4.33 -4.46 4.33 -6.07 0 -0.87 -0.43 -1.18 -1.55 -1.18 -0.93 0 -1.55 0.37 -1.55 0.93 0 1.42 -1.36 3.90 -2.29 4.27 -1.80 0.68 -3.84 -0.31 -4.46 -2.23 -0.87 -2.41 -0.87 -8.79 0 -11.76 0.56 -2.23 0.74 -2.35 3.03 -2.35 2.23 0 2.48 0.19 2.97 2.04 0.37 1.36 0.93 2.04 1.86 2.17 1.92 0.31 1.80 -2.35 -0.25 -4.77 -1.49 -1.80 -1.92 -1.92 -5.51 -1.92 -4.33 0 -6.38 1.11 -8.17 4.52 -1.24 2.48 -1.30 9.47 0 11.95 2.29 4.40 7.55 6.44 11.58 4.40z m47.30 -0.06 c2.66 -1.11 4.09 -3.16 4.09 -6.01 0 -2.97 -1.49 -4.71 -5.94 -7.06 -3.22 -1.61 -3.65 -2.11 -3.65 -3.71 0 -1.67 0.25 -1.86 1.98 -2.04 1.80 -0.19 2.23 0.12 3.34 2.04 1.55 2.60 3.47 2.72 3.16 0.31 -0.62 -5.76 -11.14 -6.56 -13.44 -1.05 -1.55 3.78 0.19 6.81 5.39 9.47 3.71 1.86 4.77 3.59 3.22 5.26 -2.11 2.35 -5.20 0.99 -6.07 -2.66 -0.25 -1.18 -0.80 -1.73 -1.67 -1.73 -2.91 0 -2.11 4.40 1.24 6.62 2.41 1.61 5.32 1.80 8.36 0.56z m-34.18 -4.21 c0.19 -4.09 0.31 -4.52 1.49 -4.71 1.18 -0.19 1.42 0.31 2.17 4.33 l0.87 4.52 3.34 0.19 c2.54 0.12 3.22 0 2.97 -0.62 -0.12 -0.50 -0.62 -2.41 -0.99 -4.33 -0.43 -1.92 -1.18 -3.84 -1.61 -4.21 -0.80 -0.68 -0.68 -1.05 0.62 -2.60 1.98 -2.29 1.98 -4.89 0.06 -7.12 -1.49 -1.67 -1.61 -1.73 -8.23 -1.73 l-6.69 0 -0.19 10.40 -0.12 10.34 3.03 0 3.10 0 0.19 -4.46z m19.81 0.80 c0.06 -2.04 0.12 -6.81 0 -10.59 l-0.19 -6.87 -2.91 0.19 -2.91 0.19 -0.19 10.40 -0.12 10.34 3.03 0 3.03 0 0.25 -3.65z m31.58 -4.52 l0.19 -8.23 2.35 -1.11 c1.42 -0.74 2.29 -1.61 2.29 -2.35 0 -1.05 -0.50 -1.18 -6.01 -1.18 -3.34 0 -7.12 -0.19 -8.42 -0.43 -2.35 -0.37 -2.41 -0.31 -2.17 1.42 0.19 1.61 0.43 1.80 2.85 1.98 l2.60 0.19 0 8.98 0 8.92 3.10 0 3.03 0 0.19 -8.17z m8.79 5.82 c0.56 -1.98 0.62 -2.04 3.65 -1.86 2.97 0.19 3.16 0.31 3.65 2.23 0.50 1.92 0.62 1.98 3.65 1.98 2.29 0 3.10 -0.25 2.91 -0.74 -0.19 -0.43 -1.55 -5.20 -3.03 -10.53 l-2.66 -9.78 -2.97 0 c-2.91 0 -2.91 0 -3.59 2.66 -0.43 1.42 -1.67 5.94 -2.85 10.03 -1.18 4.09 -2.11 7.62 -2.11 7.93 0 0.31 0.62 0.43 1.36 0.31 0.93 -0.12 1.55 -0.80 1.98 -2.23z m29.47 1.11 c0 -1.11 -0.43 -1.24 -3.71 -1.24 l-3.71 0 0 -9.29 0 -9.29 -1.92 0 c-4.21 0 -4.27 0.19 -4.27 11.14 l0 9.91 6.81 0 c6.38 0 6.81 -0.06 6.81 -1.24z m16.72 0 c0 -1.11 -0.43 -1.24 -4.02 -1.24 l-4.02 0 0 -3.71 0 -3.71 2.79 0 c2.35 0 2.79 -0.19 2.79 -1.18 0 -0.99 -0.50 -1.24 -2.60 -1.42 l-2.66 -0.19 -0.19 -2.91 -0.19 -2.91 3.90 -0.19 c3.10 -0.12 3.90 -0.37 4.09 -1.24 0.19 -0.99 -0.43 -1.11 -6.93 -1.11 l-7.18 0 0 10.53 0 10.53 7.12 0 c6.69 0 7.12 -0.06 7.12 -1.24z m8.67 -3.47 c0 -4.46 0.06 -4.64 1.36 -4.46 1.18 0.19 1.55 0.87 2.35 4.52 l0.93 4.33 3.34 0.19 c2.97 0.19 3.28 0.06 2.91 -0.93 -0.25 -0.62 -0.74 -2.48 -1.05 -4.21 -0.31 -1.67 -0.99 -3.47 -1.42 -3.90 -0.74 -0.74 -0.62 -1.24 0.68 -3.16 1.73 -2.54 1.61 -5.14 -0.43 -7.18 -1.11 -1.05 -2.29 -1.24 -8.05 -1.42 l-6.81 -0.25 0 10.59 0 10.59 3.10 0 3.10 0 0 -4.71z m19.81 -5.82 l0 -10.53 -3.10 0 -3.10 0 0 10.53 0 10.53 3.10 0 3.10 0 0 -10.53z m6.32 8.23 c0.50 -1.98 0.68 -2.04 3.59 -2.04 2.91 0 3.03 0.06 3.71 2.17 0.68 2.11 0.80 2.17 3.78 2.17 1.67 0 3.03 -0.06 3.03 -0.12 -0.06 -0.12 -1.36 -4.77 -2.97 -10.40 l-2.97 -10.22 -3.16 -0.19 -3.16 -0.19 -0.43 2.35 c-0.37 2.29 -4.15 15.48 -5.02 17.71 -0.37 0.99 -0.12 1.11 1.36 0.93 1.36 -0.12 1.86 -0.62 2.23 -2.17z m-7.74 -21.98 c2.54 -2.41 2.54 -2.97 0.19 -2.97 -1.42 0 -2.17 0.43 -3.10 2.04 -0.68 1.05 -1.24 2.17 -1.24 2.48 0 1.11 2.29 0.25 4.15 -1.55z"/>
  <path d="M248.28 172.12 c0 -2.85 0.12 -3.10 1.42 -3.10 1.86 0 2.91 1.11 2.91 3.10 0 1.98 -1.05 3.10 -2.91 3.10 -1.30 0 -1.42 -0.25 -1.42 -3.10z"/>
  <path d="M310.50 178.19 c0.56 -2.60 0.80 -2.97 1.80 -2.97 0.50 0 1.11 1.11 1.49 2.48 l0.62 2.48 -2.17 0 c-2.11 0 -2.11 -0.06 -1.73 -1.98z"/>
  <path d="M363.44 172.12 c0 -2.66 0.19 -3.10 1.18 -3.10 1.42 0 3.16 1.55 3.16 2.85 0 1.80 -1.30 3.34 -2.79 3.34 -1.42 0 -1.55 -0.25 -1.55 -3.10z"/>
  <path d="M391.54 177.88 c1.11 -3.28 2.54 -3.34 3.34 -0.19 l0.62 2.48 -2.41 0 -2.35 0 0.80 -2.29z"/>
  <path d="M91.32 186.49 c1.05 -0.99 10.34 -6.50 20.74 -12.20 10.40 -5.76 25.45 -14.12 33.43 -18.57 31.76 -17.77 59.19 -33 117.64 -65.32 13.13 -7.24 30.03 -16.59 37.52 -20.80 7.55 -4.21 14.24 -7.68 14.92 -7.68 0.62 0 4.33 1.80 8.23 3.96 53 29.29 66.81 36.90 75.23 41.54 5.45 2.97 22.04 12.20 36.84 20.43 14.80 8.23 35.17 19.50 45.20 25.08 10.03 5.51 20.37 11.27 22.91 12.69 2.54 1.49 12.32 6.93 21.67 12.07 9.35 5.20 17.27 9.66 17.58 9.97 0.37 0.31 -5.76 0.56 -15.29 0.56 l-15.91 0 -30.77 -16.78 c-16.96 -9.23 -44.21 -24.08 -60.55 -33.06 -16.35 -8.92 -33.62 -18.33 -38.39 -20.93 -4.77 -2.60 -21.48 -11.70 -37.15 -20.25 -15.97 -8.67 -29.16 -15.48 -30.03 -15.48 -0.87 0 -3.10 0.87 -4.95 1.92 -1.86 1.05 -5.20 2.91 -7.43 4.09 -28.05 15.23 -35.04 19.07 -42.72 23.28 -4.95 2.66 -10.90 5.94 -13.31 7.24 -2.35 1.30 -6.13 3.34 -8.36 4.58 -2.23 1.24 -6.13 3.34 -8.67 4.71 -2.54 1.36 -5.08 2.72 -5.57 3.03 -0.50 0.37 -3.71 2.11 -7.12 3.96 -3.41 1.86 -10.65 5.82 -16.10 8.79 -5.45 3.03 -12.01 6.56 -14.55 7.93 -2.54 1.42 -16.59 9.04 -31.27 17.03 -14.61 7.99 -28.91 15.73 -31.70 17.21 l-5.02 2.72 -14.43 0 -14.49 0 1.86 -1.73z"/>
 </g>
 <g fill="#e02020">
  <path d="M165.31 413.59 c0 -0.43 -13 -0.62 -37.77 -0.62 l-37.77 0 0 -16.04 c0 -8.79 -0.19 -17.65 -0.37 -19.69 -0.37 -3.41 -0.31 -3.71 0.93 -4.09 1.18 -0.31 1.30 -0.74 1.30 -4.33 l0 -3.96 3.28 -0.43 c1.73 -0.19 103.46 -0.37 225.99 -0.37 l222.70 0 0.62 1.61 c0.37 0.87 0.62 2.97 0.62 4.64 0 2.29 0.25 3.03 0.93 3.03 0.80 0 0.93 2.60 0.93 19.81 l0 19.81 -37.58 0 c-20.74 0 -38.26 0.19 -39.01 0.37 -1.05 0.31 -1.42 0.12 -1.42 -0.62 0 -0.93 -12.32 -0.99 -150.45 -0.99 -150.02 0 -150.45 0 -150.45 1.24 0 0.80 -0.43 1.24 -1.24 1.24 -0.68 0 -1.24 -0.25 -1.24 -0.62z"/>
 </g>
 <g fill="#b61918">
  <path d="M21.67 422.13 c-2.54 -0.31 -4.77 -0.68 -4.95 -0.87 -0.50 -0.56 1.49 -1.49 3.10 -1.49 0.87 0 2.41 -0.43 3.41 -0.99 1.05 -0.56 7 -2.60 13.31 -4.58 15.85 -4.95 51.51 -16.78 51.26 -17.03 -0.12 -0.12 -7.74 -2.60 -16.90 -5.51 -9.23 -2.97 -18.26 -5.88 -20.12 -6.50 -1.86 -0.68 -6.32 -2.11 -9.91 -3.22 -3.59 -1.11 -7.31 -2.35 -8.36 -2.79 -0.99 -0.43 -3.65 -1.24 -5.88 -1.86 -4.89 -1.30 -5.88 -1.92 -4.89 -3.10 0.62 -0.74 6.56 -0.87 35.17 -0.74 33.93 0.19 34.42 0.19 34.49 1.42 0.06 0.68 0.12 9.10 0.19 18.76 l0.06 17.46 9.97 0 c5.51 0 11.70 0.31 13.81 0.62 14.05 2.29 24.52 3.90 35.04 5.26 6.62 0.87 12.44 1.73 12.88 1.86 1.30 0.43 0.87 2.60 -0.62 3.03 -1.42 0.37 -116.27 0.56 -116.65 0.19 -0.25 -0.25 -16.96 0.06 -18.51 0.37 -0.68 0.12 -3.34 0 -5.88 -0.31z"/>
  <path d="M474.26 420.46 c0 -2.11 -0.80 -1.80 11.76 -3.78 21.05 -3.22 20.99 -2.91 0.80 -3.03 -17.71 -0.06 -18.14 -0.06 -18.14 -1.30 0 -1.24 0.43 -1.24 38.08 -1.24 l38.08 0 0 -18.88 0 -18.88 36.90 0 c24.39 0 36.72 0.19 36.47 0.62 -0.19 0.37 -0.87 0.62 -1.49 0.62 -0.62 0 -1.49 0.43 -1.92 0.93 -0.43 0.50 -1.24 0.93 -1.86 0.93 -1.86 0 -9.53 2.54 -10.22 3.34 -0.31 0.43 -1.92 0.99 -3.47 1.18 -1.61 0.19 -3.84 0.80 -4.95 1.30 -1.18 0.43 -11.64 3.90 -23.34 7.55 -11.64 3.71 -21.24 7 -21.24 7.31 0 0.56 6.62 2.85 50.40 17.27 l21.55 7.06 -9.16 0.37 c-5.02 0.25 -38.20 0.43 -73.68 0.43 l-64.58 0.06 0 -1.86z"/>
 </g>
 <g fill="#a50f10">
  <path d="M20.74 422.01 c-5.14 -0.68 -5.45 -0.80 -3.84 -1.49 0.99 -0.43 2.66 -0.68 3.71 -0.68 l1.98 0.12 -2.17 0.43 -2.17 0.43 2.79 0.12 c2.91 0.19 8.85 1.11 7.62 1.24 -0.37 0 -1.05 0.19 -1.55 0.31 -0.43 0.12 -3.28 -0.12 -6.38 -0.50z"/>
  <path d="M468.69 416.62 c0 -4.89 0.12 -5.57 0.99 -5.26 0.56 0.19 14.55 0.37 31.08 0.43 34.11 0.06 33.87 -0.12 5.70 3.96 -19.50 2.85 -29.84 4.52 -30.21 4.95 -0.19 0.19 23.59 0.37 52.87 0.37 29.22 0.06 55.17 0.31 57.52 0.50 2.41 0.25 -23.16 0.50 -56.78 0.56 l-61.17 0.12 0 -5.63z"/>
  <path d="M161.91 421.08 c-0.37 -0.31 -6.19 -1.30 -13 -2.17 -6.81 -0.93 -16.53 -2.29 -21.67 -3.16 -5.08 -0.80 -12.51 -1.98 -16.41 -2.60 -5.32 -0.87 -6.62 -1.18 -5.26 -1.49 1.05 -0.25 15.29 -0.43 31.64 -0.50 26.68 -0.06 29.90 0.06 30.21 0.93 0.19 0.56 0.37 2.91 0.37 5.26 l0 4.27 -2.66 0 c-1.49 0 -2.91 -0.25 -3.22 -0.56z"/>
 </g>
</svg>